<?xml version="1.0" standalone="no"?>
<!DOCTYPE svg PUBLIC "-//W3C//DTD SVG 20010904//EN"
 "http://www.w3.org/TR/2001/REC-SVG-20010904/DTD/svg10.dtd">
<svg version="1.0" xmlns="http://www.w3.org/2000/svg"
 width="185.000000pt" height="185.000000pt" viewBox="0 0 185.000000 185.000000"
 preserveAspectRatio="xMidYMid meet">
<metadata>
Created by potrace 1.14, written by Peter Selinger 2001-2017
</metadata>
<g transform="translate(0.000000,185.000000) scale(0.100000,-0.100000)"
fill="#000000" stroke="none">
<path d="M423 1251 c-63 -23 -74 -30 -91 -53 -7 -10 -19 -18 -26 -18 -13 0
-14 -21 -2 -77 8 -37 11 -50 35 -168 63 -314 94 -451 101 -459 5 -5 54 38 115
100 l106 109 59 -64 c64 -69 86 -81 95 -50 4 10 12 19 18 19 7 0 34 52 62 115
27 63 53 115 57 115 5 0 8 -17 9 -37 1 -21 2 -56 4 -78 1 -22 4 -75 6 -118 2
-43 7 -81 11 -83 4 -3 40 -2 80 2 57 5 76 12 93 30 12 13 27 24 33 24 6 0 12
5 14 12 3 7 36 -8 87 -40 46 -28 89 -48 97 -45 8 3 11 9 8 14 -3 5 5 14 18 20
17 7 25 20 26 42 1 18 9 77 17 132 8 55 17 127 20 160 3 33 10 89 15 125 11
77 11 105 0 70 -7 -22 -8 -20 -7 12 1 20 5 34 10 31 4 -2 7 0 7 4 0 11 -107
73 -125 73 -8 0 -17 -9 -20 -20 -3 -11 -12 -20 -20 -20 -8 0 -22 -30 -36 -75
-20 -69 -24 -74 -40 -63 -10 7 -70 70 -134 141 -125 137 -156 155 -147 86 1
-4 -8 -4 -20 -1 -20 5 -21 3 -15 -106 l5 -112 -55 1 c-42 1 -58 -2 -65 -15
-14 -25 -21 -20 -55 37 -38 64 -57 67 -111 21 -22 -19 -42 -34 -45 -34 -3 0
-20 35 -37 78 -35 85 -88 182 -98 182 -4 -1 -30 -9 -59 -19z"/>
</g>
</svg>
