<?xml version="1.0" standalone="no"?>
<!DOCTYPE svg PUBLIC "-//W3C//DTD SVG 20010904//EN"
 "http://www.w3.org/TR/2001/REC-SVG-20010904/DTD/svg10.dtd">
<svg version="1.0" xmlns="http://www.w3.org/2000/svg"
 width="512.000000pt" height="512.000000pt" viewBox="0 0 512.000000 512.000000"
 preserveAspectRatio="xMidYMid meet">
<metadata>
Created by potrace 1.14, written by Peter Selinger 2001-2017
</metadata>
<g transform="translate(0.000000,512.000000) scale(0.100000,-0.100000)"
fill="#000000" stroke="none">
<path d="M2669 4661 c-2 -5 -15 -11 -29 -13 -14 -2 -30 -7 -37 -11 -6 -4 -15
-3 -18 3 -5 8 -11 7 -21 -1 -10 -8 -14 -8 -14 0 0 13 -22 10 -32 -4 -5 -6 -8
-5 -8 4 0 10 -3 11 -13 2 -8 -6 -17 -8 -20 -4 -4 3 -7 1 -7 -5 0 -6 -7 -9 -15
-6 -8 4 -15 1 -15 -5 0 -6 -9 -11 -19 -11 -11 0 -23 -5 -27 -12 -5 -7 -3 -8 6
-3 9 5 11 4 6 -3 -4 -7 -17 -12 -28 -12 -12 0 -19 -3 -15 -6 3 -3 -4 -15 -15
-26 -18 -18 -33 -25 -61 -27 -5 -1 -5 -5 -2 -11 3 -5 -1 -11 -9 -11 -9 -1 -20
-2 -25 -3 -10 -1 -56 -47 -56 -56 0 -3 -3 -4 -6 -3 -3 1 -5 -13 -4 -32 0 -18
-3 -31 -7 -29 -8 5 -12 -10 -9 -33 1 -7 -3 -13 -9 -13 -6 0 -8 -5 -5 -10 4 -6
2 -17 -5 -25 -8 -10 -8 -15 1 -21 8 -5 9 -3 4 6 -5 9 -4 11 4 6 8 -6 9 -11 1
-20 -5 -7 -10 -24 -10 -37 1 -72 5 -119 10 -119 3 0 7 -12 8 -27 1 -15 8 -30
15 -35 8 -5 1 -11 -20 -19 -19 -6 -30 -16 -26 -22 4 -6 1 -7 -7 -2 -14 9 -87
-64 -73 -74 12 -9 15 -34 4 -27 -5 4 -9 -3 -8 -14 1 -11 5 -20 10 -20 5 0 4
-7 -3 -16 -11 -12 -10 -18 5 -32 15 -13 17 -13 9 -2 -5 9 -1 7 9 -4 14 -15 15
-21 5 -27 -7 -5 -9 -9 -4 -9 5 0 2 -8 -5 -17 -12 -15 -12 -16 1 -8 12 7 13 6
3 -7 -7 -8 -10 -18 -6 -21 3 -4 1 -7 -6 -7 -7 0 -9 -5 -4 -12 12 -20 12 -38 1
-38 -6 0 -5 -6 2 -15 10 -12 10 -15 0 -15 -8 0 -10 -3 -7 -7 4 -3 2 -12 -3
-19 -6 -6 -10 -16 -9 -20 4 -26 -2 -45 -13 -38 -10 6 -10 4 0 -8 10 -13 10
-17 -2 -21 -9 -4 -12 -15 -9 -31 3 -14 -1 -34 -8 -43 -10 -12 -10 -14 -1 -9
15 9 16 -6 0 -22 -7 -7 -8 -12 -4 -12 5 0 2 -8 -5 -17 -8 -10 -9 -14 -2 -10 6
4 14 3 17 -2 3 -5 -1 -12 -9 -15 -13 -4 -14 -10 -5 -26 8 -14 8 -20 0 -20 -6
0 -8 -5 -4 -11 3 -6 0 -15 -7 -20 -8 -5 -9 -9 -3 -9 12 0 13 -108 2 -126 -4
-6 -4 -14 -1 -18 12 -12 12 -40 0 -48 -9 -6 -9 -8 0 -8 14 0 13 -42 -2 -52 -6
-5 -5 -8 4 -8 9 0 11 -8 7 -26 -5 -19 -4 -24 6 -18 10 6 9 3 -1 -9 -11 -14
-11 -17 0 -17 11 0 11 -2 -1 -10 -13 -9 -13 -10 0 -10 13 0 13 -1 0 -10 -13
-9 -13 -10 0 -10 13 0 13 -1 0 -10 -8 -5 -10 -10 -3 -10 6 0 9 -8 6 -19 -3
-10 0 -22 6 -25 8 -5 8 -13 1 -26 -7 -13 -7 -21 0 -25 8 -5 8 -11 0 -20 -8
-10 -7 -16 7 -24 17 -10 17 -10 -2 -11 -15 0 -17 -2 -7 -9 8 -4 13 -11 13 -15
-1 -3 0 -9 0 -13 1 -5 0 -16 -1 -27 -1 -10 4 -22 12 -27 10 -7 11 -12 1 -28
-11 -17 -10 -22 5 -30 13 -8 14 -11 2 -11 -12 0 -11 -3 3 -11 9 -6 15 -14 12
-20 -11 -17 -14 -49 -4 -49 5 0 8 -13 7 -28 -1 -15 1 -33 6 -40 4 -7 2 -12 -6
-12 -8 0 -6 -5 5 -11 14 -8 16 -14 6 -25 -6 -8 -7 -14 -2 -14 5 0 10 -16 11
-35 2 -23 -2 -35 -10 -35 -8 0 -9 -3 -3 -8 14 -10 19 -46 5 -37 -7 4 -6 -6 3
-27 7 -18 20 -33 28 -33 8 0 20 -4 27 -8 7 -5 12 -3 12 3 0 7 7 7 22 -1 15 -8
18 -14 10 -17 -10 -3 -10 -7 0 -20 11 -13 11 -14 -1 -7 -11 6 -13 3 -9 -13 4
-13 1 -22 -5 -22 -6 0 -7 -3 -4 -7 4 -3 2 -12 -4 -20 -9 -10 -8 -13 1 -13 9 0
9 -4 3 -12 -6 -7 -9 -21 -8 -30 2 -10 -1 -18 -7 -18 -6 0 -5 -6 2 -15 10 -12
10 -15 0 -15 -9 0 -9 -4 1 -17 10 -11 10 -14 2 -9 -14 8 -14 6 -17 -37 0 -15
-8 -32 -16 -37 -8 -5 -10 -10 -4 -10 7 0 14 -11 16 -25 3 -13 1 -22 -3 -19 -5
3 -7 -5 -5 -18 2 -13 -2 -29 -8 -37 -9 -12 -8 -13 4 -6 24 13 -32 -38 -64 -58
-17 -12 -25 -24 -22 -33 3 -8 2 -12 -3 -9 -11 6 -25 -31 -16 -44 3 -6 -3 -14
-12 -20 -14 -8 -15 -11 -3 -11 12 0 10 -4 -4 -15 -11 -8 -17 -15 -13 -15 8 0
-4 -16 -38 -52 -12 -13 -14 -18 -5 -14 8 4 7 1 -3 -7 -10 -9 -18 -19 -19 -24
0 -4 -4 -7 -10 -5 -5 1 -7 -2 -4 -7 4 -5 1 -13 -5 -16 -5 -4 -8 -13 -5 -20 5
-15 -17 -39 -27 -29 -4 4 -4 -4 -2 -16 2 -12 2 -20 -2 -16 -6 6 -47 -51 -48
-67 0 -4 -7 -12 -15 -17 -8 -5 -11 -10 -6 -10 5 0 1 -10 -10 -22 -12 -13 -13
-18 -4 -13 11 6 11 4 -2 -11 -9 -10 -17 -23 -18 -29 -1 -5 -6 -9 -10 -8 -5 2
-7 -6 -5 -16 2 -10 -5 -28 -15 -39 -10 -11 -16 -23 -13 -26 4 -3 -2 -15 -12
-26 -10 -11 -14 -20 -9 -20 5 0 1 -5 -9 -11 -14 -8 -16 -14 -6 -25 9 -11 9
-14 0 -14 -8 0 -9 -5 -3 -16 7 -12 3 -29 -12 -58 -11 -23 -24 -43 -29 -44 -4
-2 -5 -8 -1 -13 3 -5 0 -9 -6 -9 -6 0 -15 -11 -20 -25 -5 -14 -15 -25 -21 -25
-7 0 -9 -3 -5 -7 3 -4 -4 -13 -16 -20 -13 -7 -17 -12 -10 -13 10 0 10 -3 0
-14 -7 -8 -16 -12 -20 -9 -5 2 -8 -1 -8 -7 0 -6 -5 -8 -10 -5 -6 4 -9 1 -8 -7
2 -7 -1 -12 -7 -12 -5 1 -19 -7 -30 -19 -11 -11 -15 -17 -9 -14 6 3 11 0 11
-8 0 -8 -3 -14 -6 -13 -19 2 -31 -3 -26 -11 3 -5 1 -12 -5 -16 -6 -4 -4 -12 5
-22 9 -9 14 -22 11 -30 -4 -9 0 -13 12 -11 10 2 16 -3 14 -10 -1 -8 2 -11 6
-8 5 3 21 -5 35 -18 17 -15 28 -20 31 -13 3 9 5 8 5 0 1 -7 8 -13 16 -13 8 0
15 -5 15 -11 0 -5 4 -8 9 -5 5 3 14 -1 21 -9 7 -8 19 -15 27 -15 8 0 24 -10
35 -23 11 -12 16 -16 12 -8 -5 9 -3 12 4 7 7 -4 12 -14 12 -22 0 -8 5 -14 11
-14 5 0 7 6 4 13 -4 6 2 2 13 -10 11 -12 22 -19 26 -16 3 4 6 0 6 -7 0 -7 3
-11 6 -7 4 3 14 -3 23 -15 15 -18 20 -19 40 -8 19 9 22 9 16 0 -5 -8 -3 -11 6
-8 8 3 22 1 32 -4 10 -5 17 -5 17 0 0 5 22 8 50 7 27 -1 47 2 44 7 -3 4 0 8 6
8 7 0 9 7 6 16 -3 8 -2 12 4 9 6 -3 10 -1 10 4 0 6 -4 11 -10 11 -5 0 -10 7
-10 16 0 8 -4 12 -10 9 -5 -3 -10 -1 -10 4 0 6 -9 11 -19 11 -11 0 -23 5 -27
11 -5 8 -9 8 -14 -1 -5 -8 -16 -4 -36 15 -16 15 -23 23 -15 19 9 -5 12 -3 7 4
-4 7 -13 12 -21 12 -8 0 -12 8 -10 19 2 11 -3 22 -11 25 -9 4 -12 11 -8 18 13
21 12 50 -3 55 -7 3 -11 9 -8 13 3 4 -2 11 -11 14 -9 3 -12 11 -8 18 5 9 3 9
-9 -1 -9 -7 -18 -12 -18 -10 -5 15 -3 136 2 133 7 -4 22 35 19 51 -1 6 1 7 5
4 9 -10 58 38 51 50 -4 5 2 14 11 20 11 6 13 11 5 11 -7 0 3 15 22 33 25 24
34 40 31 56 -2 13 0 19 6 15 6 -3 13 4 16 16 3 13 11 19 20 16 8 -3 12 -2 8 3
-7 13 5 42 16 35 5 -3 9 2 9 10 0 8 9 18 20 21 11 4 18 10 15 15 -3 5 4 12 16
15 11 4 18 13 15 20 -2 7 2 16 10 19 8 3 14 13 14 21 0 9 5 13 10 10 6 -3 10
3 10 14 0 12 5 21 11 21 5 0 8 4 5 9 -3 5 1 12 10 15 9 4 14 9 11 13 -10 10
13 44 25 37 7 -4 8 -3 4 4 -4 6 2 20 14 32 11 11 20 25 20 30 0 6 7 13 15 16
8 4 15 13 15 21 0 8 4 11 10 8 5 -3 12 5 15 18 4 14 22 39 41 58 26 25 31 36
22 46 -8 10 -8 12 3 8 14 -5 39 47 42 87 1 9 4 15 8 12 8 -4 22 33 22 59 0 9
4 17 9 17 5 0 8 6 6 12 -3 7 1 19 9 26 16 17 17 36 1 26 -7 -4 -2 6 10 23 12
17 18 34 14 38 -4 5 1 5 11 2 10 -4 21 -7 23 -7 2 0 4 -9 4 -20 0 -11 5 -20
11 -20 8 0 8 -5 -1 -15 -9 -11 -9 -15 -1 -15 7 0 10 -4 6 -9 -3 -5 -1 -12 4
-16 6 -3 8 -12 4 -20 -3 -9 1 -15 11 -15 9 0 16 -5 16 -11 0 -5 -5 -7 -12 -3
-6 4 -4 -3 5 -17 9 -13 17 -31 17 -41 0 -10 6 -18 13 -18 8 0 7 -4 -3 -10 -8
-5 -10 -10 -4 -10 7 0 15 -11 18 -25 4 -14 11 -25 16 -25 6 0 10 -5 10 -11 0
-5 -4 -7 -10 -4 -6 3 -7 -1 -4 -9 3 -9 10 -16 15 -16 5 0 8 -3 7 -7 0 -5 2
-16 7 -26 4 -10 5 -21 1 -24 -3 -4 1 -15 11 -25 11 -13 12 -18 3 -18 -9 0 -10
-3 -1 -13 6 -8 8 -17 4 -20 -3 -4 -1 -7 7 -7 9 0 10 -3 1 -13 -8 -10 -7 -17 1
-25 7 -7 8 -12 3 -12 -4 0 0 -9 11 -21 12 -13 14 -23 8 -27 -13 -8 -14 -42 -2
-42 4 0 8 -18 8 -40 0 -25 5 -40 13 -40 9 0 8 -3 -2 -9 -9 -6 -10 -10 -2 -12
6 -2 12 -21 13 -42 1 -20 4 -37 7 -37 4 0 8 -12 9 -27 1 -15 8 -30 15 -35 7
-5 8 -8 1 -8 -6 0 -11 -7 -11 -15 0 -8 5 -11 10 -8 6 4 8 0 4 -10 -3 -10 -2
-17 4 -17 6 0 7 -4 4 -10 -3 -5 -2 -10 4 -10 5 0 8 -8 7 -17 -2 -10 4 -24 13
-31 9 -8 10 -11 4 -7 -17 8 -17 -7 0 -24 10 -11 9 -12 -3 -6 -13 8 -13 7 -1
-8 7 -9 10 -17 5 -17 -5 0 -2 -5 6 -10 12 -8 12 -10 -5 -11 -11 0 -14 -3 -7
-6 6 -2 12 -11 12 -18 0 -7 -6 -16 -12 -18 -10 -4 -10 -6 0 -6 7 -1 11 -5 8
-9 -2 -4 4 -14 16 -21 11 -7 17 -8 13 -2 -3 6 -1 11 4 11 10 0 15 -14 12 -32
0 -5 4 -8 10 -8 5 0 8 -4 4 -9 -3 -5 -1 -12 4 -15 5 -3 8 -19 7 -36 -1 -16 2
-30 7 -30 5 0 2 -11 -6 -24 -12 -17 -13 -26 -4 -35 8 -8 8 -11 -2 -11 -7 0
-11 -6 -8 -14 3 -7 0 -19 -6 -26 -9 -10 -9 -11 0 -6 9 5 11 2 7 -8 -3 -9 -11
-13 -17 -9 -6 3 -7 1 -3 -5 12 -20 16 -92 4 -92 -7 0 -7 -4 1 -14 9 -11 9 -15
-1 -19 -11 -4 -10 -6 0 -6 7 -1 10 -5 7 -11 -3 -5 -1 -10 5 -10 6 0 8 -5 4
-12 -5 -9 -2 -9 9 1 14 11 17 11 17 0 0 -9 3 -10 8 -4 10 14 32 17 32 4 0 -8
4 -8 14 0 9 8 16 8 20 2 8 -13 46 -10 46 4 0 7 3 7 8 0 4 -6 16 -11 27 -11 11
0 23 5 27 11 5 6 8 5 8 -4 0 -10 3 -11 13 -3 7 6 18 7 26 2 9 -5 20 -3 29 7
10 9 18 11 25 4 5 -5 19 -6 31 -2 11 4 31 6 44 5 16 -1 21 3 18 13 -3 8 -1 11
5 8 5 -4 17 -1 26 7 12 9 15 9 9 1 -10 -18 0 -16 19 4 10 9 29 18 43 19 15 2
28 8 30 14 2 5 8 8 13 4 5 -3 9 0 9 6 0 6 5 8 10 5 6 -3 10 -1 10 5 0 6 5 8
10 5 6 -3 10 -3 11 2 0 4 3 22 5 38 3 23 2 26 -6 15 -8 -12 -10 -11 -10 7 0
12 -5 25 -12 29 -7 4 -8 3 -4 -4 4 -7 1 -12 -9 -12 -10 0 -13 5 -9 12 5 9 2 9
-9 -1 -11 -8 -17 -9 -17 -3 0 6 -7 9 -15 6 -9 -4 -15 0 -15 7 0 10 -3 10 -8 3
-9 -13 -42 -14 -42 -1 0 5 -6 4 -14 -2 -11 -10 -17 -8 -25 6 -6 10 -11 14 -11
10 0 -5 -7 -2 -15 6 -8 9 -24 13 -36 10 -15 -4 -20 -3 -15 5 4 7 1 12 -7 12
-8 0 -14 7 -13 16 0 9 -7 18 -17 19 -10 2 -14 -1 -10 -8 4 -7 0 -8 -11 -4 -9
4 -15 3 -12 -2 3 -5 -1 -11 -9 -15 -8 -3 -15 -1 -15 4 0 5 -7 7 -15 4 -17 -7
-69 42 -60 57 4 5 2 15 -3 22 -11 15 -15 100 -4 93 10 -6 8 42 -3 67 -4 9 -5
26 -2 37 3 11 1 17 -4 14 -6 -3 -7 5 -3 22 6 21 4 25 -7 19 -12 -7 -11 -6 0 9
13 15 13 19 0 27 -11 7 -11 9 0 9 11 0 11 3 1 15 -10 12 -10 15 0 15 9 0 9 4
-1 17 -12 15 -12 16 1 8 13 -8 13 -7 1 8 -11 14 -11 17 0 17 12 0 12 2 1 9 -8
4 -14 12 -14 16 0 4 6 12 14 16 10 7 10 9 1 9 -8 0 -11 9 -10 22 2 12 1 38 -3
59 -5 24 -4 36 2 33 6 -4 7 0 1 12 -5 11 -8 31 -7 47 2 17 -1 25 -8 21 -6 -4
-6 1 1 14 6 12 7 23 2 26 -5 3 -7 16 -4 29 4 16 2 18 -5 8 -8 -11 -10 -8 -9
12 1 15 7 27 12 27 6 0 2 5 -8 11 -11 7 -15 15 -10 22 5 7 8 28 6 47 -2 19 -4
45 -4 57 -1 13 -4 21 -8 19 -3 -2 -6 9 -6 25 0 16 4 29 9 29 5 0 3 6 -3 13 -6
8 -8 17 -4 20 3 4 0 14 -8 24 -9 11 -10 14 -1 9 7 -4 12 -1 12 9 0 9 -5 13
-11 9 -8 -4 -8 -1 -1 12 12 22 11 74 -1 74 -4 0 -3 10 4 21 9 17 8 20 -2 14
-9 -6 -11 -2 -7 13 4 12 2 22 -4 22 -5 0 -6 5 -3 10 3 6 0 10 -7 10 -9 0 -9 3
2 10 8 5 10 10 5 10 -6 0 -12 12 -13 27 -1 15 -6 29 -10 32 -10 8 -9 22 2 40
7 10 6 12 -4 6 -10 -6 -12 0 -8 24 2 17 1 31 -3 31 -4 0 -3 16 1 35 4 19 4 33
0 30 -5 -3 -11 -1 -15 5 -3 5 -2 10 2 10 5 0 9 9 9 20 0 11 -4 20 -8 20 -4 0
-8 9 -8 20 0 11 -4 20 -9 20 -4 0 -6 11 -4 25 3 13 8 24 12 23 3 0 15 0 26 1
15 1 17 3 6 10 -9 6 -10 10 -2 16 9 5 9 10 0 21 -9 11 -8 14 2 14 11 0 11 2
-1 10 -13 9 -13 10 0 10 12 0 13 2 1 9 -8 5 -10 14 -5 22 10 17 13 49 4 49 -8
0 -6 32 3 47 4 6 2 15 -4 19 -8 5 -9 3 -4 -6 5 -9 4 -11 -4 -6 -8 5 -9 12 -3
19 5 7 8 21 7 32 -2 11 -5 36 -8 56 -2 20 -8 43 -12 49 -6 9 -4 11 6 5 12 -8
12 -6 0 8 -11 14 -11 17 0 17 11 0 11 2 2 8 -8 5 -14 37 -15 82 -2 41 -6 77
-10 80 -4 3 -8 22 -10 42 -1 21 -6 34 -12 31 -5 -4 -7 0 -3 9 3 9 0 21 -6 27
-8 8 -8 11 0 11 6 0 9 9 6 20 -3 11 -10 20 -16 20 -8 0 -8 3 0 11 7 7 8 20 3
34 -5 14 -5 26 2 33 6 6 6 12 -3 17 -8 6 -10 4 -4 -5 5 -8 4 -11 -2 -7 -6 4
-8 18 -5 33 3 16 -1 29 -9 35 -8 5 -9 9 -3 9 6 0 11 7 11 15 0 8 -4 12 -9 9
-8 -5 -10 2 -10 49 -1 15 -5 27 -9 27 -5 0 -9 5 -9 11 0 5 6 7 13 3 7 -5 7 -1
-2 10 -13 15 -13 19 0 27 11 7 10 9 -6 10 -12 0 -15 3 -7 6 10 4 9 10 -5 26
-12 14 -13 18 -3 12 13 -8 13 -7 1 8 -9 12 -10 17 -2 17 7 0 9 5 6 10 -4 6 -9
8 -13 6 -4 -2 -6 29 -5 70 2 48 -1 74 -9 74 -7 0 -7 4 1 14 8 10 9 16 1 21 -7
4 -7 13 1 27 8 15 8 19 -1 13 -8 -5 -11 -1 -9 11 2 11 0 25 -4 32 -5 7 -3 12
4 12 8 0 6 7 -5 19 -12 13 -14 21 -6 26 5 3 7 12 3 18 -12 19 -12 37 0 37 5 0
7 3 4 7 -4 3 -1 13 6 21 9 13 9 14 0 8 -7 -4 -13 -3 -13 2 0 6 7 13 16 16 8 3
12 10 9 16 -3 5 -1 10 6 10 6 0 -1 13 -17 28 -16 15 -32 27 -35 25 -3 -1 -6 4
-6 12 0 8 4 15 9 15 5 0 6 5 3 10 -3 6 -1 10 4 10 6 0 20 9 31 20 11 11 17 20
14 20 -4 0 0 8 7 17 12 15 12 16 -1 8 -12 -7 -13 -6 -3 6 6 8 13 25 15 39 2
14 9 24 16 22 8 -1 11 2 7 8 -3 6 4 14 17 19 13 6 17 10 11 10 -7 1 -13 10
-13 22 0 13 4 18 13 13 8 -5 8 -2 -2 9 -9 12 -10 17 -2 17 7 0 9 5 5 12 -4 7
-3 8 4 4 13 -8 52 27 52 47 0 8 4 7 10 -3 8 -13 10 -12 10 3 0 29 1 31 18 51
13 15 13 17 2 11 -13 -7 -13 -6 -2 7 9 12 10 18 2 23 -8 5 -8 10 0 20 8 10 8
15 0 20 -8 5 -7 11 2 23 10 12 10 14 1 8 -12 -6 -15 3 -12 30 0 3 -8 12 -18
21 -11 9 -12 12 -3 8 8 -4 6 1 -4 9 -14 11 -15 16 -6 16 9 0 6 7 -8 21 -12 11
-19 25 -16 31 4 6 3 8 -3 5 -12 -7 -43 28 -43 49 0 8 -4 13 -9 9 -5 -3 -19 7
-30 21 -12 15 -21 23 -21 19 0 -5 -9 0 -19 9 -10 10 -21 13 -22 7z m-339
-3095 c0 -2 -8 -10 -17 -17 -16 -13 -17 -12 -4 4 13 16 21 21 21 13z"/>
</g>
</svg>
